<mxfile host="app.diagrams.net" agent="Mozilla/5.0 (Windows NT 10.0; Win64; x64) AppleWebKit/537.36 (KHTML, like Gecko) Chrome/128.0.0.0 Safari/537.36" version="24.7.8">
  <diagram name="Page-1" id="RHg2YedW5DHYK33MlUOw">
    <mxGraphModel dx="1311" dy="696" grid="1" gridSize="10" guides="1" tooltips="1" connect="1" arrows="1" fold="1" page="1" pageScale="1" pageWidth="850" pageHeight="1100" math="0" shadow="0">
      <root>
        <mxCell id="0" />
        <mxCell id="1" parent="0" />
        <mxCell id="qRDKLd_FjsQvjZ0rxT1--38" value="" style="verticalLabelPosition=bottom;verticalAlign=top;html=1;shape=mxgraph.basic.rect;fillColor2=none;strokeWidth=2;size=20;indent=5;dashed=1;fillColor=none;" vertex="1" parent="1">
          <mxGeometry x="620" y="30" width="660" height="410" as="geometry" />
        </mxCell>
        <mxCell id="qRDKLd_FjsQvjZ0rxT1--19" value="URL" style="edgeStyle=orthogonalEdgeStyle;rounded=0;orthogonalLoop=1;jettySize=auto;html=1;" edge="1" parent="1" source="qRDKLd_FjsQvjZ0rxT1--1" target="qRDKLd_FjsQvjZ0rxT1--5">
          <mxGeometry x="-0.0909" y="10" relative="1" as="geometry">
            <mxPoint as="offset" />
          </mxGeometry>
        </mxCell>
        <mxCell id="qRDKLd_FjsQvjZ0rxT1--1" value="Usuario" style="shape=umlActor;verticalLabelPosition=bottom;verticalAlign=top;html=1;outlineConnect=0;" vertex="1" parent="1">
          <mxGeometry x="70" y="60" width="30" height="60" as="geometry" />
        </mxCell>
        <mxCell id="qRDKLd_FjsQvjZ0rxT1--2" value="DynamoDB" style="shape=cylinder3;whiteSpace=wrap;html=1;boundedLbl=1;backgroundOutline=1;size=15;" vertex="1" parent="1">
          <mxGeometry x="900" y="280" width="60" height="80" as="geometry" />
        </mxCell>
        <mxCell id="qRDKLd_FjsQvjZ0rxT1--3" value="Función lambda" style="ellipse;whiteSpace=wrap;html=1;" vertex="1" parent="1">
          <mxGeometry x="870" y="60" width="120" height="80" as="geometry" />
        </mxCell>
        <mxCell id="qRDKLd_FjsQvjZ0rxT1--20" value="HTTP request" style="edgeStyle=orthogonalEdgeStyle;rounded=0;orthogonalLoop=1;jettySize=auto;html=1;exitX=1;exitY=0.5;exitDx=0;exitDy=0;entryX=0;entryY=0.5;entryDx=0;entryDy=0;" edge="1" parent="1" source="qRDKLd_FjsQvjZ0rxT1--5" target="qRDKLd_FjsQvjZ0rxT1--15">
          <mxGeometry x="0.1111" y="-10" relative="1" as="geometry">
            <mxPoint as="offset" />
          </mxGeometry>
        </mxCell>
        <mxCell id="qRDKLd_FjsQvjZ0rxT1--37" value="Credenciales usuario" style="edgeStyle=orthogonalEdgeStyle;rounded=0;orthogonalLoop=1;jettySize=auto;html=1;exitX=1;exitY=1;exitDx=0;exitDy=0;" edge="1" parent="1" source="qRDKLd_FjsQvjZ0rxT1--5" target="qRDKLd_FjsQvjZ0rxT1--28">
          <mxGeometry relative="1" as="geometry" />
        </mxCell>
        <mxCell id="qRDKLd_FjsQvjZ0rxT1--5" value="Navegador web" style="rounded=0;whiteSpace=wrap;html=1;" vertex="1" parent="1">
          <mxGeometry x="210" y="60" width="120" height="60" as="geometry" />
        </mxCell>
        <mxCell id="qRDKLd_FjsQvjZ0rxT1--6" value="S3&lt;div&gt;Bucket&lt;/div&gt;" style="shape=cylinder3;whiteSpace=wrap;html=1;boundedLbl=1;backgroundOutline=1;size=15;" vertex="1" parent="1">
          <mxGeometry x="1170" y="60" width="60" height="80" as="geometry" />
        </mxCell>
        <mxCell id="qRDKLd_FjsQvjZ0rxT1--21" value="Información&lt;br&gt;de vehículo&lt;br&gt;&lt;br&gt;Solicitudes" style="edgeStyle=orthogonalEdgeStyle;rounded=0;orthogonalLoop=1;jettySize=auto;html=1;exitX=1;exitY=0.5;exitDx=0;exitDy=0;entryX=0;entryY=0.5;entryDx=0;entryDy=0;" edge="1" parent="1" source="qRDKLd_FjsQvjZ0rxT1--15" target="qRDKLd_FjsQvjZ0rxT1--3">
          <mxGeometry x="0.0909" y="-30" relative="1" as="geometry">
            <mxPoint x="810" y="100" as="sourcePoint" />
            <mxPoint as="offset" />
          </mxGeometry>
        </mxCell>
        <mxCell id="qRDKLd_FjsQvjZ0rxT1--25" value="HTTP response" style="edgeStyle=orthogonalEdgeStyle;rounded=0;orthogonalLoop=1;jettySize=auto;html=1;exitX=0.5;exitY=0;exitDx=0;exitDy=0;entryX=0.5;entryY=0;entryDx=0;entryDy=0;" edge="1" parent="1" source="qRDKLd_FjsQvjZ0rxT1--15" target="qRDKLd_FjsQvjZ0rxT1--5">
          <mxGeometry y="-10" relative="1" as="geometry">
            <mxPoint as="offset" />
          </mxGeometry>
        </mxCell>
        <mxCell id="qRDKLd_FjsQvjZ0rxT1--15" value="Amazon API&lt;br&gt;&amp;nbsp;Gateway" style="ellipse;whiteSpace=wrap;html=1;" vertex="1" parent="1">
          <mxGeometry x="640" y="60" width="120" height="80" as="geometry" />
        </mxCell>
        <mxCell id="qRDKLd_FjsQvjZ0rxT1--26" value="Archivos estáticos&lt;br&gt;PDF&lt;br&gt;Word&lt;br&gt;Imagenes" style="endArrow=classic;startArrow=classic;html=1;rounded=0;exitX=1;exitY=0.5;exitDx=0;exitDy=0;" edge="1" parent="1" source="qRDKLd_FjsQvjZ0rxT1--3">
          <mxGeometry x="-0.0196" y="30" width="50" height="50" relative="1" as="geometry">
            <mxPoint x="1090" y="120" as="sourcePoint" />
            <mxPoint x="1170" y="100" as="targetPoint" />
            <mxPoint as="offset" />
          </mxGeometry>
        </mxCell>
        <mxCell id="qRDKLd_FjsQvjZ0rxT1--27" value="Información vehículo&lt;div&gt;&lt;br/&gt;&lt;/div&gt;" style="endArrow=classic;startArrow=classic;html=1;rounded=0;entryX=0.5;entryY=1;entryDx=0;entryDy=0;exitX=0.5;exitY=0;exitDx=0;exitDy=0;exitPerimeter=0;" edge="1" parent="1" source="qRDKLd_FjsQvjZ0rxT1--2" target="qRDKLd_FjsQvjZ0rxT1--3">
          <mxGeometry width="50" height="50" relative="1" as="geometry">
            <mxPoint x="890" y="270" as="sourcePoint" />
            <mxPoint x="940" y="220" as="targetPoint" />
          </mxGeometry>
        </mxCell>
        <mxCell id="qRDKLd_FjsQvjZ0rxT1--32" value="Credenciales de usuario" style="edgeStyle=orthogonalEdgeStyle;rounded=0;orthogonalLoop=1;jettySize=auto;html=1;exitX=0.5;exitY=1;exitDx=0;exitDy=0;" edge="1" parent="1" source="qRDKLd_FjsQvjZ0rxT1--28" target="qRDKLd_FjsQvjZ0rxT1--30">
          <mxGeometry relative="1" as="geometry" />
        </mxCell>
        <mxCell id="qRDKLd_FjsQvjZ0rxT1--28" value="Amazon Cognito" style="ellipse;whiteSpace=wrap;html=1;" vertex="1" parent="1">
          <mxGeometry x="450" y="210" width="120" height="80" as="geometry" />
        </mxCell>
        <mxCell id="qRDKLd_FjsQvjZ0rxT1--36" value="Archivos app web&lt;br&gt;HTML&lt;br&gt;CSS&lt;br&gt;JS" style="edgeStyle=orthogonalEdgeStyle;rounded=0;orthogonalLoop=1;jettySize=auto;html=1;entryX=0.5;entryY=1;entryDx=0;entryDy=0;" edge="1" parent="1" source="qRDKLd_FjsQvjZ0rxT1--29" target="qRDKLd_FjsQvjZ0rxT1--5">
          <mxGeometry x="-0.04" y="-40" relative="1" as="geometry">
            <mxPoint x="-40" y="-40" as="offset" />
          </mxGeometry>
        </mxCell>
        <mxCell id="qRDKLd_FjsQvjZ0rxT1--29" value="AWS Amplify" style="ellipse;whiteSpace=wrap;html=1;" vertex="1" parent="1">
          <mxGeometry x="210" y="360" width="120" height="80" as="geometry" />
        </mxCell>
        <mxCell id="qRDKLd_FjsQvjZ0rxT1--30" value="DB de usuarios" style="shape=cylinder3;whiteSpace=wrap;html=1;boundedLbl=1;backgroundOutline=1;size=15;" vertex="1" parent="1">
          <mxGeometry x="480" y="370" width="60" height="80" as="geometry" />
        </mxCell>
        <mxCell id="qRDKLd_FjsQvjZ0rxT1--39" value="" style="verticalLabelPosition=bottom;verticalAlign=top;html=1;shape=mxgraph.basic.rect;fillColor2=none;strokeWidth=2;size=20;indent=5;fillColor=none;dashed=1;" vertex="1" parent="1">
          <mxGeometry x="200" y="320" width="150" height="160" as="geometry" />
        </mxCell>
        <mxCell id="qRDKLd_FjsQvjZ0rxT1--40" value="" style="verticalLabelPosition=bottom;verticalAlign=top;html=1;shape=mxgraph.basic.rect;fillColor2=none;strokeWidth=2;size=20;indent=5;fillColor=none;dashed=1;" vertex="1" parent="1">
          <mxGeometry x="435" y="180" width="150" height="300" as="geometry" />
        </mxCell>
        <mxCell id="qRDKLd_FjsQvjZ0rxT1--41" value="Frontend" style="text;html=1;align=center;verticalAlign=middle;whiteSpace=wrap;rounded=0;" vertex="1" parent="1">
          <mxGeometry x="240" y="450" width="60" height="30" as="geometry" />
        </mxCell>
        <mxCell id="qRDKLd_FjsQvjZ0rxT1--43" value="Autenticación" style="text;html=1;align=center;verticalAlign=middle;whiteSpace=wrap;rounded=0;" vertex="1" parent="1">
          <mxGeometry x="480" y="450" width="60" height="30" as="geometry" />
        </mxCell>
        <mxCell id="qRDKLd_FjsQvjZ0rxT1--44" value="Registro de vehículos" style="text;html=1;align=center;verticalAlign=middle;whiteSpace=wrap;rounded=0;" vertex="1" parent="1">
          <mxGeometry x="875" y="400" width="110" height="30" as="geometry" />
        </mxCell>
        <mxCell id="qRDKLd_FjsQvjZ0rxT1--50" value="&lt;font style=&quot;font-size: 16px;&quot;&gt;&lt;b&gt;&lt;u&gt;Grupo: Camilo Castaño, Sofía Gil, Cristian Naranjo y Juliana Briceño&lt;/u&gt;&lt;/b&gt;&lt;/font&gt;" style="text;html=1;align=center;verticalAlign=middle;whiteSpace=wrap;rounded=0;" vertex="1" parent="1">
          <mxGeometry x="90" y="580" width="400" height="30" as="geometry" />
        </mxCell>
      </root>
    </mxGraphModel>
  </diagram>
</mxfile>
